<svg width="50" height="50" viewBox="0 0 152 114" fill="none" xmlns="http://www.w3.org/2000/svg">
    <path
            d="M73.344 52.52C72.7467 53.032 71.5093 53.5013 69.632 53.928C67.7547 54.2693 66.4747 54.4827 65.792 54.568C66.4747 57.8107 66.816 59.3893 66.816 59.304C67.4133 61.4373 68.0533 64.3813 68.736 68.136C70.272 76.7547 71.8507 84.0933 73.472 90.152C73.8987 92.1147 74.112 93.2667 74.112 93.608C74.112 94.4613 73.7707 95.1867 73.088 95.784C72.4053 96.3813 71.5947 96.68 70.656 96.68C69.8027 96.68 69.0347 96.2107 68.352 95.272C67.6693 94.4187 67.2 93.6507 66.944 92.968C66.176 90.0667 65.4507 86.824 64.768 83.24C64.1707 79.656 63.4453 75.3467 62.592 70.312C62.2507 68.0933 61.696 65.3627 60.928 62.12C60.16 58.792 59.648 56.616 59.392 55.592C54.3573 56.2747 45.696 57.64 33.408 59.688L25.984 60.968L23.296 68.52L19.712 78.76C16.7253 88.0613 14.592 95.2293 13.312 100.264C13.056 101.459 12.544 102.44 11.776 103.208C11.008 104.061 10.0693 104.488 8.96 104.488C8.02133 104.488 7.21067 104.232 6.528 103.72C5.93067 103.208 5.632 102.483 5.632 101.544C5.632 100.605 6.144 98.6 7.168 95.528C8.192 92.5413 8.78933 90.7493 8.96 90.152C9.30133 89.2987 9.984 87.336 11.008 84.264C12.1173 80.936 13.5253 76.9253 15.232 72.232C17.024 67.4533 18.2187 64.296 18.816 62.76C14.464 63.784 11.2213 64.5947 9.088 65.192C5.84533 66.0453 3.84 66.472 3.072 66.472C2.13333 66.472 1.408 66.1307 0.896 65.448C0.469333 64.68 0.256 63.8693 0.256 63.016C0.256 61.992 0.512 61.3093 1.024 60.968C1.536 60.5413 2.38933 60.1573 3.584 59.816C6.82667 59.048 10.24 58.28 13.824 57.512C17.4933 56.744 20.0107 56.232 21.376 55.976C22.2293 53.5013 22.8693 51.4107 23.296 49.704C23.6373 48.5947 24.064 47.2293 24.576 45.608C25.1733 43.9013 25.8133 41.8107 26.496 39.336L28.416 32.808C31.6587 21.3733 33.536 14.8453 34.048 13.224C34.4747 12.0293 34.8587 11.0907 35.2 10.408C35.6267 9.72533 36.1813 9.384 36.864 9.384C38.5707 9.384 40.1067 9.63999 41.472 10.152C41.6427 9.98133 41.8987 9.64 42.24 9.128C42.6667 8.53066 43.0933 8.14666 43.52 7.976C44.032 7.72 44.672 7.592 45.44 7.592C46.976 7.592 48.7253 9.34133 50.688 12.84C52.736 16.3387 54.6987 20.4773 56.576 25.256C57.6853 28.072 59.0933 32.296 60.8 37.928C62.5067 43.4747 63.616 47.144 64.128 48.936C65.408 48.7653 66.4747 48.552 67.328 48.296C68.2667 47.9547 68.864 47.7413 69.12 47.656C69.5467 47.4853 70.016 47.1867 70.528 46.76C71.04 46.3333 71.5093 46.0347 71.936 45.864C72.3627 45.608 72.832 45.608 73.344 45.864C74.4533 46.376 75.008 47.4427 75.008 49.064C75.008 49.6613 74.8373 50.3013 74.496 50.984C74.24 51.6667 73.856 52.1787 73.344 52.52ZM51.712 28.328C50.5173 25.1707 48.9813 21.928 47.104 18.6C45.2267 15.272 43.648 13.1813 42.368 12.328L40.96 15.656C39.3387 18.8987 38.1013 21.8427 37.248 24.488C35.2 30.632 31.9573 40.7867 27.52 54.952L42.496 52.392L54.784 50.472L58.24 49.96C57.8133 48.424 56.9173 45.224 55.552 40.36C54.1867 35.4107 52.9067 31.4 51.712 28.328ZM151.689 111.4C151.689 111.997 151.348 112.467 150.665 112.808C150.068 113.149 149.385 113.32 148.617 113.32C146.74 113.32 145.161 112.765 143.881 111.656C142.686 110.632 142.089 109.096 142.089 107.048C142.089 96.296 142.174 87.5067 142.345 80.68L142.601 69.288C142.857 61.352 142.985 55.4213 142.985 51.496C134.452 70.5253 126.089 84.8613 117.897 94.504C109.705 104.232 100.532 109.096 90.377 109.096C82.8677 109.096 77.3637 106.792 73.865 102.184C70.3663 97.576 68.617 90.408 68.617 80.68C68.617 67.624 71.561 54.8667 77.449 42.408C83.337 29.864 90.889 19.6667 100.105 11.816C109.406 3.96533 118.793 0.0399933 128.265 0.0399933C131.252 0.0399933 133.257 0.978661 134.281 2.856C135.39 4.73333 135.945 6.696 135.945 8.744C135.945 10.8773 135.732 12.584 135.305 13.864C134.964 15.0587 134.537 15.656 134.025 15.656C133.598 15.656 133.257 15.272 133.001 14.504C132.83 13.736 132.617 12.3707 132.361 10.408C132.105 8.53066 131.678 7.16533 131.081 6.312C130.484 5.37333 129.417 4.904 127.881 4.904C120.03 4.904 111.924 8.744 103.561 16.424C95.2837 24.104 88.3717 33.832 82.825 45.608C77.3637 57.2987 74.633 68.7333 74.633 79.912C74.633 86.9947 75.785 92.4987 78.089 96.424C80.4783 100.435 84.745 102.44 90.889 102.44C97.545 102.44 103.732 99.8373 109.449 94.632C115.166 89.4267 120.244 83.0267 124.681 75.432C129.204 67.752 134.537 57.5973 140.681 44.968C136.329 45.8213 130.228 47.528 122.377 50.088L117.385 51.752L112.649 53.288C109.492 54.3973 106.932 55.2507 104.969 55.848C103.006 56.36 101.385 56.616 100.105 56.616C99.2517 56.616 98.569 56.232 98.057 55.464C97.6303 54.6107 97.417 53.7147 97.417 52.776C97.417 51.5813 99.1663 50.3867 102.665 49.192C106.164 47.912 111.412 46.504 118.409 44.968C121.14 44.3707 125.065 43.3467 130.185 41.896C131.038 41.64 133.598 40.9573 137.865 39.848C142.217 38.7387 145.246 38.184 146.953 38.184C147.124 38.184 147.593 38.184 148.361 38.184C149.214 38.184 149.812 38.5253 150.153 39.208C150.494 39.8053 150.665 40.7867 150.665 42.152C150.665 42.92 150.153 43.6027 149.129 44.2L149.001 54.056C148.745 60.712 148.617 67.9653 148.617 75.816V93.992V101.032C148.788 103.933 149.086 105.981 149.513 107.176C149.94 108.456 150.409 109.352 150.921 109.864C151.433 110.461 151.689 110.973 151.689 111.4Z"
            fill="black"/>
</svg>