<svg width="20" height="20" viewBox="0 0 16 20" fill-opacity="0.698039" stroke-width="0.6" fill="#FFFFFF8C"
     stroke="#FFFFFFA5" xmlns="http://www.w3.org/2000/svg">
    <path d="M14.89 6.89379C14.8295 6.82647 14.7433 6.78809 14.6527 6.78809H1.34734C1.25683 6.78809 1.17057 6.82651 1.11006 6.89379C1.04955 6.96106 1.02044 7.05089 1.02998 7.14089L2.36376 19.7145C2.38095 19.8768 2.51789 20 2.68112 20H13.319C13.4822 20 13.6191 19.8768 13.6363 19.7145L14.9701 7.14089C14.9796 7.05089 14.9505 6.96106 14.89 6.89379ZM5.64321 19.3617L5.01015 7.42638H7.68087V19.3617H5.64321ZM1.70215 7.42638H4.37104L5.00406 19.3617H2.96819L1.70215 7.42638ZM13.0318 19.3617H10.996L11.2778 14.0484C11.2872 13.8723 11.1521 13.7221 10.9761 13.7128C10.7995 13.703 10.6498 13.8386 10.6404 14.0146L10.3568 19.3617H8.31917V7.42638H10.9898L10.708 12.7397C10.6987 12.9157 10.8338 13.066 11.0098 13.0753C11.0156 13.0756 11.0213 13.0758 11.027 13.0758C11.1955 13.0758 11.3364 12.9438 11.3454 12.7735L11.629 7.42638H14.2979L13.0318 19.3617Z"
    />
    <path d="M7.99994 2.97872C7.82368 2.97872 7.68079 3.12162 7.68079 3.29787C7.68079 3.47413 7.82368 3.61702 7.99994 3.61702C8.45534 3.61702 8.86734 3.86936 9.07521 4.27557C9.13172 4.38596 9.24359 4.4494 9.35959 4.4494C9.40853 4.4494 9.45819 4.43813 9.50474 4.4143C9.66168 4.334 9.72376 4.1417 9.64347 3.98481C9.32589 3.36421 8.69611 2.97872 7.99994 2.97872Z"
    />
    <path d="M4.31159 5.68528C4.2313 5.84221 4.29342 6.03447 4.45032 6.11477C4.49687 6.1386 4.54653 6.14987 4.59547 6.14987C4.71147 6.14987 4.82334 6.08643 4.87985 5.97604C5.08772 5.56983 5.49972 5.31749 5.95513 5.31749C6.13138 5.31749 6.27427 5.1746 6.27427 4.99834C6.27427 4.82209 6.13138 4.67919 5.95513 4.67919C5.25891 4.67919 4.62917 5.06468 4.31159 5.68528Z"
    />
    <path d="M1.32475 6.14898C1.33241 6.14953 1.34003 6.14979 1.3476 6.14979C1.5136 6.14979 1.65373 6.02128 1.66564 5.85315C1.67003 5.79119 1.6793 5.72885 1.69326 5.66774C1.79458 5.22374 2.13228 4.87826 2.57454 4.766C2.66607 4.74277 2.74258 4.68021 2.78356 4.59511C2.82454 4.51004 2.82573 4.41119 2.78684 4.32515C2.59888 3.90936 2.65845 3.42991 2.94237 3.07391C3.22628 2.71787 3.6805 2.55306 4.12764 2.64383C4.22007 2.6626 4.31628 2.63945 4.39011 2.5806C4.46394 2.5217 4.5079 2.43319 4.5102 2.33877C4.52122 1.8826 4.78292 1.47651 5.19322 1.27889C5.60356 1.08128 6.0842 1.12987 6.44773 1.40566C6.52296 1.46272 6.61956 1.48349 6.71164 1.46255C6.80369 1.44153 6.88173 1.38085 6.92475 1.29677C7.13258 0.890638 7.54458 0.638298 7.99998 0.638298C8.45539 0.638298 8.86739 0.890638 9.07526 1.29685C9.11828 1.38094 9.19633 1.44162 9.28837 1.46264C9.38037 1.48362 9.47709 1.46281 9.55228 1.40574C9.91577 1.12991 10.3965 1.08136 10.8068 1.27898C11.217 1.4766 11.4788 1.88268 11.4898 2.33885C11.4921 2.43323 11.536 2.52179 11.6099 2.58068C11.6837 2.63953 11.7799 2.66272 11.8723 2.64391C12.3195 2.55319 12.7737 2.71796 13.0576 3.074C13.3415 3.43004 13.4011 3.90949 13.2132 4.32523C13.1743 4.41128 13.1755 4.51013 13.2165 4.59519C13.2574 4.68026 13.3339 4.74281 13.4255 4.76604C13.8677 4.8783 14.2054 5.22383 14.3068 5.66779C14.3207 5.72889 14.33 5.79123 14.3344 5.85315C14.3468 6.02894 14.4995 6.1614 14.6753 6.14898C14.8511 6.13655 14.9835 5.98391 14.9711 5.80809C14.9644 5.71362 14.9503 5.6186 14.929 5.5257C14.8001 4.96055 14.4207 4.49979 13.9073 4.26238C14.0418 3.71298 13.9181 3.12915 13.5567 2.67591C13.1952 2.22264 12.6542 1.97226 12.088 1.98102C11.9708 1.4277 11.606 0.955319 11.0837 0.703787C10.5614 0.452255 9.96467 0.461532 9.45896 0.714936C9.1133 0.267319 8.57969 0 7.99998 0C7.42028 0 6.88667 0.267277 6.54101 0.714979C6.0353 0.461574 5.43854 0.45234 4.91624 0.70383C4.39398 0.955362 4.02918 1.4277 3.91198 1.98106C3.34543 1.97209 2.80471 2.22277 2.4433 2.67596C2.0819 3.12915 1.95816 3.71302 2.09262 4.26243C1.57926 4.49983 1.1999 4.9606 1.07092 5.52574C1.04969 5.61864 1.03556 5.71366 1.02888 5.80813C1.0165 5.98396 1.14892 6.13655 1.32475 6.14898Z"
    />
</svg>
